# xmcd CD database file
#
# Track frame offsets:
#	150
#	16120
#	31812
#	48360
#	62470
#	79470
#	89482
#	98237
#	114750
#	134460
#	150690
#	164020
#	178305
#	186492
#	204020
#	221497
#	250855
#
# Disc length: 3510 seconds
#
# Revision: 0
# Processed by: cddbd v1.5.2PL0 Copyright (c) Steve Scherf et al.
# Submitted via: CDex 1.73
#
DISCID=e30db411
DTITLE=Windham Hill - Songs Without Words
DYEAR=1987
DGENRE=New Age
TTITLE0=Water Fountain (David Forster)
TTITLE1=The Stone Quilt (Desmond Child)
TTITLE2=Major Dreams, Minor Lies (David Benoit)
TTITLE3=Songs Without Words (Eric Bazilian)
TTITLE4=A Hollywood Nocturne (John Corey)
TTITLE5=Miracles (Walter Afanasief)f
TTITLE6=Garbo Redux (Bob James)
TTITLE7=Everything I Do (I Do It For You) (Michael Kamen)
TTITLE8=If You Asked Me To (Diane Warren)
TTITLE9=Generations (Jim Brickman)
TTITLE10=Not Like This (Jeremy Lubbock)
TTITLE11=This Isn't Love (Brian Wilson)
TTITLE12=What Can You Lose (Stephen Sondheim)
TTITLE13=Life Is A Circle (Michael Whalen)
TTITLE14=Cousin Stu (Jeff Lorber)
TTITLE15=Blue Modal Morning Alive (Carole King)
TTITLE16=Unlisted
EXTD=YEAR: 1987
EXTT0=
EXTT1=
EXTT2=
EXTT3=
EXTT4=
EXTT5=
EXTT6=
EXTT7=
EXTT8=
EXTT9=
EXTT10=
EXTT11=
EXTT12=
EXTT13=
EXTT14=
EXTT15=
EXTT16=
PLAYORDER=
